<svg width="52" height="52" viewBox="0 0 52 52" fill="none" xmlns="http://www.w3.org/2000/svg">
<path d="M24.7271 9.73549C29.5694 4.89321 37.4203 4.89322 42.2625 9.73549C47.1048 14.5778 47.1048 22.4287 42.2626 27.2709L29.4803 40.0531C28.8853 40.6482 27.9204 40.6482 27.3254 40.0531L11.9449 24.6727C11.3498 24.0776 11.3498 23.1128 11.9449 22.5177L24.7271 9.73549Z" fill="#B1B1B1"/>
<path opacity="0.3" fill-rule="evenodd" clip-rule="evenodd" d="M14.6864 33.071L18.929 37.3136L15.9799 40.2628C16.5126 41.3779 16.3171 42.7539 15.3935 43.6775C14.2219 44.8491 12.3224 44.8491 11.1508 43.6775C10.6075 43.1342 10.3162 42.4343 10.2768 41.7232C9.56557 41.6837 8.86573 41.3924 8.32243 40.8491C7.15085 39.6775 7.15085 37.778 8.32243 36.6065C9.24608 35.6828 10.6222 35.4873 11.7373 36.0201L14.6864 33.071Z" fill="#B1B1B1"/>
</svg>
