<svg width="32" height="44" viewBox="0 0 32 44" fill="none" xmlns="http://www.w3.org/2000/svg">
<path opacity="0.3" fill-rule="evenodd" clip-rule="evenodd" d="M15.0484 43.0492C15.2292 43.4298 15.7708 43.4298 15.9516 43.0492L25 24H6L15.0484 43.0492Z" fill="#B1B1B1"/>
<path fill-rule="evenodd" clip-rule="evenodd" d="M16 0C21.5228 0 26 4.47715 26 10H27H29.5C30.8807 10 32 11.1193 32 12.5V15V17.5C32 18.8807 30.8807 20 29.5 20H27H16H5H2.5C1.11929 20 0 18.8807 0 17.5V15V12.5C0 11.1193 1.11929 10 2.5 10H5H6C6 4.47715 10.4772 0 16 0Z" fill="#B1B1B1"/>
</svg>
