<svg width="46" height="25" viewBox="0 0 46 25" fill="none" xmlns="http://www.w3.org/2000/svg">
<path fill-rule="evenodd" clip-rule="evenodd" d="M15 16H3C3 18.7614 5.23858 21 8 21H16C18.7614 21 21 18.7614 21 16H18.5L17.5026 17.1399C17.1042 17.5952 16.3958 17.5952 15.9974 17.1399L15 16Z" fill="#C4C4C4"/>
<path d="M21 10H3C3 7.23858 5.23858 5 8 5H16C18.7614 5 21 7.23858 21 10Z" fill="#C4C4C4"/>
<rect opacity="0.3" x="2" y="12" width="20" height="2" rx="1" fill="#252525"/>
<path opacity="0.3" d="M38 7V9H41C41.5523 9 42 9.44772 42 10V13C42 13.5523 41.5523 14 41 14H38V16H41C42.6569 16 44 14.6569 44 13V10C44 8.34315 42.6569 7 41 7H38Z" fill="black"/>
<path opacity="0.3" fill-rule="evenodd" clip-rule="evenodd" d="M34.2423 5C33.435 3.79401 32.0602 3 30.5 3C28.9398 3 27.5651 3.79401 26.7578 5H34.2423Z" fill="black"/>
<path opacity="0.3" fill-rule="evenodd" clip-rule="evenodd" d="M29 5H37C37 2.79086 35.2091 1 33 1C30.7909 1 29 2.79086 29 5Z" fill="black"/>
<path opacity="0.3" fill-rule="evenodd" clip-rule="evenodd" d="M34.05 5H38.95C38.7184 3.85888 37.7095 3 36.5 3C35.2906 3 34.2817 3.85888 34.05 5Z" fill="black"/>
<path fill-rule="evenodd" clip-rule="evenodd" d="M26.0605 5C25.5083 5 25.0605 5.44772 25.0605 6V20C25.0605 21.1046 25.956 22 27.0605 22H37.9395C39.044 22 39.9395 21.1046 39.9395 20V6C39.9395 5.44772 39.4918 5 38.9395 5H26.0605ZM29 9C29 8.44772 29.4477 8 30 8C30.5523 8 31 8.44772 31 9V18C31 18.5523 30.5523 19 30 19C29.4477 19 29 18.5523 29 18V9ZM34 9C34 8.44772 34.4477 8 35 8C35.5523 8 36 8.44772 36 9V18C36 18.5523 35.5523 19 35 19C34.4477 19 34 18.5523 34 18V9Z" fill="#C4C4C4"/>
</svg>
