<svg width="115" height="35" viewBox="0 0 115 35" fill="none" xmlns="http://www.w3.org/2000/svg">
<path d="M58.0325 8.27529H56.2936C56.2037 8.27529 56.1337 8.23531 56.0838 8.15537L54.4448 5.58702H54.125V8.0954C54.125 8.20533 54.0551 8.27529 53.9452 8.27529H52.2962C52.1863 8.27529 52.1163 8.20533 52.1163 8.0954V0.270462C52.1163 0.160533 52.1863 0.0905762 52.2962 0.0905762H54.8446C56.8433 0.0905762 57.9426 1.20985 57.9426 2.8388C57.9426 3.99805 57.3929 4.89747 56.3536 5.3172L58.1424 8.06542C58.2324 8.18535 58.1724 8.27529 58.0325 8.27529ZM54.125 3.82816H54.8146C55.3742 3.82816 56.0438 3.6183 56.0438 2.8388C56.0438 2.04931 55.3742 1.84944 54.8146 1.84944H54.125V3.82816Z" fill="#333333"/>
<path d="M59.7015 0.0900879H61.3504C61.4604 0.0900879 61.5303 0.160045 61.5303 0.269973V8.09492C61.5303 8.20484 61.4604 8.2748 61.3504 8.2748H59.7015C59.5916 8.2748 59.5216 8.20484 59.5216 8.09492V0.269973C59.5216 0.160045 59.5916 0.0900879 59.7015 0.0900879Z" fill="#333333"/>
<path d="M62.8694 4.21728C62.8694 1.86879 64.7781 0 67.0867 0C69.3952 0 71.3039 1.86879 71.3039 4.21728C71.3039 6.55577 69.3952 8.42456 67.0867 8.42456C64.7682 8.42456 62.8694 6.55577 62.8694 4.21728ZM69.2653 4.21728C69.2653 2.92811 68.3159 1.94874 67.0767 1.94874C65.8375 1.94874 64.8881 2.92811 64.8881 4.21728C64.8881 5.48646 65.8375 6.45583 67.0767 6.45583C68.3259 6.45583 69.2653 5.48646 69.2653 4.21728Z" fill="#333333"/>
<path d="M79.5186 0.269958V8.0949C79.5186 8.20483 79.4487 8.27478 79.3387 8.27478H77.4999C77.41 8.27478 77.34 8.23481 77.2901 8.15486L74.6418 3.36796V8.0949C74.6418 8.20483 74.5718 8.27478 74.4619 8.27478H72.8129C72.703 8.27478 72.6331 8.20483 72.6331 8.0949V0.269958C72.6331 0.160029 72.703 0.0900723 72.8129 0.0900723H74.6418C74.7317 0.0900723 74.8017 0.130048 74.8516 0.209996L77.4999 5.0069V0.259964C77.4999 0.150035 77.5699 0.0800781 77.6798 0.0800781H79.3287C79.4487 0.0900717 79.5186 0.160029 79.5186 0.269958Z" fill="#333333"/>
<path d="M18.4181 30.8203C18.568 31.0302 18.628 31.2101 18.4181 31.4499C16.5793 33.4086 13.911 34.5779 10.9329 34.5779C4.89684 34.5779 0 29.801 0 23.7649C0 17.6688 4.89684 12.9219 10.9329 12.9219C13.911 12.9219 16.5793 14.0611 18.4081 16.0499C18.618 16.2597 18.558 16.4696 18.4081 16.6794L15.7998 19.5076C15.6499 19.7175 15.3801 19.7175 15.1702 19.5376C14.0609 18.5782 12.6518 17.9486 10.873 17.9486C7.71502 17.9486 5.28658 20.437 5.28658 23.7749C5.28658 27.0527 7.72501 29.5411 10.873 29.5411C12.6418 29.5411 14.0609 28.9415 15.1702 27.9522C15.3801 27.7723 15.6499 27.8023 15.7998 28.0121L18.4181 30.8203Z" fill="#FCD561"/>
<path d="M113.966 33.7684H109.549C109.309 33.7684 109.129 33.6784 109.04 33.4086L108.11 30.4605H101.115L100.185 33.4086C100.095 33.6784 99.9154 33.7684 99.6756 33.7684H95.2585C94.9287 33.7684 94.7788 33.5585 94.8987 33.2587L102.134 13.1017C102.224 12.8619 102.404 12.7419 102.644 12.7419H106.491C106.731 12.7419 106.971 12.8619 107.061 13.1017L114.326 33.2587C114.446 33.5585 114.296 33.7684 113.966 33.7684ZM106.751 26.3232L104.592 19.5376L102.434 26.3232H106.751Z" fill="#FCD561"/>
<path d="M22.3155 12.6831C24.0144 12.6831 24.8539 12.6731 26.5528 12.6731C26.8226 12.6731 27.0025 12.793 27.0025 12.9829C26.9226 17.6699 26.8326 22.3568 26.7527 27.0338C26.7527 27.2237 26.5628 27.3736 26.293 27.4236C24.5941 27.7034 23.7446 27.8533 22.0557 28.1831C21.7859 28.233 21.606 28.1331 21.616 27.9332C21.6959 22.9565 21.7859 17.9897 21.8658 13.0129C21.8658 12.813 22.0457 12.6831 22.3155 12.6831Z" fill="#FCD561"/>
<path d="M48.7185 12.9119C48.6885 16.8794 48.6585 20.8468 48.6185 24.8042C48.6185 24.9641 48.4387 25.0741 48.1588 25.094C46.2501 25.184 45.3007 25.2439 43.3919 25.3839C43.1521 25.4038 42.9722 25.3639 42.8523 25.2439C40.134 22.4557 38.7849 21.0467 36.1066 18.0286C36.0567 21.1366 36.0267 22.6856 35.9767 25.7936C35.9767 25.9635 35.7868 26.1034 35.517 26.1334C33.8081 26.3332 32.9587 26.4432 31.2598 26.673C30.9899 26.713 30.8101 26.6131 30.8101 26.4332C30.89 21.9461 30.97 17.459 31.0499 12.9619C31.0499 12.782 31.2398 12.6621 31.5096 12.6621C33.3984 12.6621 34.3378 12.6621 36.2266 12.6521C36.4664 12.6521 36.6463 12.712 36.7662 12.842C39.4445 15.9699 40.7836 17.429 43.4919 20.2971C43.5318 17.3391 43.5418 15.87 43.5818 12.9119C43.5818 12.752 43.7617 12.6421 44.0315 12.6421C45.7304 12.6421 46.5699 12.6421 48.2688 12.6421C48.5386 12.6421 48.7185 12.752 48.7185 12.9119Z" fill="#FCD561"/>
<path d="M65.2279 22.6556C65.2379 23.5051 65.2379 23.9348 65.2479 24.7843C65.2479 24.9442 65.068 25.0441 64.7982 25.0341C60.1512 24.8442 57.8327 24.8242 53.1857 24.9242C52.9158 24.9342 52.726 24.8242 52.726 24.6743C52.7459 20.7569 52.7559 16.8294 52.7759 12.9119C52.7759 12.752 52.9558 12.6521 53.2256 12.6521C57.8027 12.6521 60.0912 12.6521 64.6682 12.6521C64.9381 12.6521 65.1179 12.762 65.1179 12.9219C65.1279 13.7714 65.1279 14.2011 65.1379 15.0505C65.1379 15.2104 64.958 15.3104 64.6882 15.3104C61.98 15.2904 60.6208 15.2804 57.9126 15.2804C57.9126 16.1199 57.9126 16.5396 57.9126 17.379C60.461 17.379 61.7301 17.389 64.2785 17.429C64.5483 17.429 64.7282 17.5389 64.7282 17.6988C64.7382 18.5483 64.7382 18.968 64.7482 19.8175C64.7482 19.9774 64.5683 20.0773 64.2985 20.0673C61.7401 20.0073 60.4709 19.9874 57.9126 19.9874C57.9126 20.8968 57.9126 21.3465 57.9126 22.2559C60.6508 22.2659 62.0299 22.2859 64.7682 22.3758C65.048 22.3858 65.2279 22.4957 65.2279 22.6556Z" fill="#FCD561"/>
<path d="M92.0205 13.0119C92.1105 17.9587 92.1904 22.8955 92.2804 27.8423C92.2804 28.0421 92.1105 28.1421 91.8406 28.0921C90.1517 27.7723 89.3023 27.6224 87.6034 27.3526C87.3336 27.3126 87.1537 27.1527 87.1437 26.9628C87.0937 23.9448 87.0637 22.4358 87.0038 19.4077C86.8639 19.7775 86.7939 19.9674 86.664 20.3371C85.2949 22.8555 84.6053 24.0747 83.2262 26.4232C83.1363 26.5731 82.8964 26.6331 82.6566 26.6031C81.1875 26.4032 80.448 26.3133 78.969 26.1334C78.7291 26.1034 78.5093 25.9835 78.4193 25.8236C76.9503 23.2253 76.2207 21.9761 74.7617 19.5276C74.6118 19.1779 74.5318 18.998 74.3919 18.6582C74.4319 21.3565 74.4519 22.6956 74.4919 25.3938C74.4919 25.5637 74.312 25.6537 74.0421 25.6337C72.3333 25.4838 71.4738 25.4138 69.7649 25.2939C69.4951 25.2739 69.3052 25.154 69.3052 24.9941C69.2652 20.9667 69.2153 16.9393 69.1753 12.9119C69.1753 12.752 69.3552 12.6421 69.625 12.6421C71.4538 12.6421 72.3632 12.6421 74.1921 12.6421C74.4319 12.6421 74.6418 12.7021 74.7317 12.832C77.1302 16.5096 78.3394 18.4084 80.7578 22.4857C83.0363 18.8481 84.1656 16.9493 86.4241 12.8719C86.5141 12.732 86.724 12.6621 86.9638 12.6621C88.8126 12.6621 89.742 12.6721 91.5908 12.6721C91.8307 12.6821 92.0105 12.812 92.0205 13.0119Z" fill="#FCD561"/>
<path d="M90.5415 32.8289C84.9451 31.9394 79.2988 31.2799 73.6425 30.8701L71.5238 30.7202L69.4052 30.6003L68.3459 30.5403L67.2866 30.5004L65.1579 30.4104L63.0293 30.3505L61.97 30.3205L60.9107 30.3005C60.2011 30.2905 59.4916 30.2805 58.7821 30.2705H56.6534C53.8153 30.2805 50.9771 30.3305 48.1489 30.4404C45.3108 30.5503 42.4826 30.7102 39.6544 30.9101C36.8262 31.12 33.9981 31.3798 31.1799 31.6896C29.7708 31.8495 28.3617 32.0194 26.9626 32.2093C25.5535 32.3991 24.1544 32.609 22.7553 32.8389C21.9658 32.9688 21.5461 32.8988 21.5161 32.7389C21.4862 32.589 21.8459 32.3492 22.6354 32.1793C24.0345 31.8895 25.4336 31.6296 26.8427 31.3898C28.2518 31.1499 29.6509 30.9301 31.07 30.7302C33.8881 30.3305 36.7263 30.0007 39.5645 29.7309C42.4026 29.471 45.2508 29.2712 48.099 29.1312C50.9471 28.9913 53.8053 28.9314 56.6534 28.9214L58.792 28.9314C59.5016 28.9414 60.2211 28.9514 60.9307 28.9714L62 28.9913L63.0693 29.0313L65.2079 29.1113L67.3465 29.2212L68.4158 29.2812L69.4851 29.3611L71.6238 29.511L73.7524 29.7009C79.4387 30.2205 85.0851 31.05 90.6714 32.1593C92.5402 32.549 92.4203 33.1187 90.5415 32.8289Z" fill="#FCDA75"/>
<path d="M1.2492 24.594C1.2492 18.7378 5.76628 14.1307 11.4826 13.771C11.3027 13.761 11.1228 13.751 10.9329 13.751C5.2666 13.751 0.829468 18.1481 0.829468 23.7645C0.829468 25.3035 1.17924 26.7526 1.80884 28.0517C1.44907 26.9724 1.2492 25.8132 1.2492 24.594Z" fill="white"/>
<path d="M15.8199 29.2412L15.4201 28.8115C14.3108 29.7009 13.0117 30.2106 11.5526 30.3305C11.7425 30.3505 11.9324 30.3605 12.1322 30.3605C13.5913 30.3605 14.8105 29.9508 15.8199 29.2412Z" fill="white"/>
<path d="M112.807 32.939H113.327L106.341 13.5715H105.822L112.807 32.939Z" fill="white"/>
<path d="M103.463 20.327L103.343 19.9473L101.185 26.7329H101.724C101.604 26.533 101.574 26.2932 101.644 26.0633L103.463 20.327Z" fill="white"/>
<path d="M99.8554 30.8804L99.2058 32.939H99.4556L100.095 30.8804H99.8554Z" fill="white"/>
<path d="M39.5444 30.1612C45.2208 29.6315 50.9271 29.3417 56.6434 29.3617L58.782 29.3517C59.4915 29.3517 60.2111 29.3817 60.9206 29.4017L65.1979 29.5216L69.4751 29.7814L71.6137 29.9214L73.7423 30.1312L77.9996 30.5609C79.4187 30.7408 80.8278 30.9507 82.2368 31.1506C84.1256 31.3804 86.0544 31.6103 87.9532 31.8801C86.0644 31.5303 84.1256 31.1805 82.2069 30.9407C81.7472 30.8807 81.2875 30.8108 80.8377 30.7508C79.8884 30.6109 78.929 30.481 77.9796 30.3611L73.7223 29.9314L71.6037 29.7215L69.4651 29.5816L65.1979 29.3217C65.1979 29.3217 60.4409 29.1918 60.2011 29.1818C59.7314 29.1718 59.2617 29.1519 58.792 29.1519L56.6534 29.1618H56.2636C50.9171 29.1618 45.3107 29.4317 39.5844 29.9613C35.1373 30.3811 31.0799 30.9007 27.2823 31.5403C31.3297 30.9207 35.3971 30.5609 39.5444 30.1612Z" fill="white"/>
<path d="M21.9758 32.5996C21.9058 32.6296 21.8459 32.6596 21.7959 32.6895C21.8059 32.6895 21.8159 32.6895 21.8259 32.6895C21.8758 32.6596 21.9258 32.6296 21.9758 32.5996Z" fill="white"/>
<path d="M42.2726 0.269973V8.09492C42.2726 8.20484 42.2027 8.2748 42.0928 8.2748H40.4438C40.3339 8.2748 40.2639 8.20484 40.2639 8.09492V3.86765L40.124 4.4073L38.7449 8.1249C38.7049 8.21484 38.615 8.2748 38.5251 8.2748H37.096C37.006 8.2748 36.9161 8.21484 36.8861 8.1249L35.507 4.4073L35.3671 3.86765V8.09492C35.3671 8.20484 35.2971 8.2748 35.1872 8.2748H33.5383C33.4284 8.2748 33.3584 8.20484 33.3584 8.09492V0.269973C33.3584 0.160045 33.4284 0.0900879 33.5383 0.0900879H35.3171C35.4071 0.0900879 35.497 0.130063 35.527 0.210012L37.8055 5.9563L40.0741 0.210012C40.114 0.130063 40.194 0.0900879 40.2839 0.0900879H42.0828C42.2027 0.0900879 42.2726 0.160045 42.2726 0.269973Z" fill="#333333"/>
<path d="M50.8071 8.27457H49.0882C48.9983 8.27457 48.9283 8.2346 48.8884 8.13466L48.5286 6.9854H45.8104L45.4506 8.13466C45.4106 8.24459 45.3407 8.27457 45.2507 8.27457H43.5318C43.4019 8.27457 43.342 8.19462 43.3919 8.0747L46.2101 0.239762C46.2501 0.149821 46.32 0.0998535 46.41 0.0998535H47.909C47.9989 0.0998535 48.0989 0.149821 48.1289 0.239762L50.957 8.0747C50.997 8.18463 50.9371 8.27457 50.8071 8.27457ZM48.0089 5.37644L47.1695 2.73815L46.33 5.37644H48.0089Z" fill="#333333"/>
</svg>
