<svg width="38" height="42" viewBox="0 0 38 42" fill="none" xmlns="http://www.w3.org/2000/svg">
<path d="M26 12V16H32C33.1046 16 34 16.8954 34 18V24C34 25.1046 33.1046 26 32 26H26V30H32C35.3137 30 38 27.3137 38 24V18C38 14.6863 35.3137 12 32 12H26Z" fill="#B1B1B1"/>
<path opacity="0.3" fill-rule="evenodd" clip-rule="evenodd" d="M18.4845 8C16.87 5.58803 14.1205 4 11 4C7.87963 4 5.13012 5.58803 3.51559 8H18.4845Z" fill="#979797"/>
<path opacity="0.3" fill-rule="evenodd" clip-rule="evenodd" d="M8 8H24C24 3.58172 20.4183 0 16 0C11.5817 0 8 3.58172 8 8Z" fill="#979797"/>
<path opacity="0.3" fill-rule="evenodd" clip-rule="evenodd" d="M18.1001 8H27.9C27.4367 5.71776 25.419 4 23 4C20.5811 4 18.5633 5.71776 18.1001 8Z" fill="#979797"/>
<path fill-rule="evenodd" clip-rule="evenodd" d="M1.12106 8C0.568779 8 0.121063 8.44772 0.121063 9V40C0.121063 41.1046 1.01649 42 2.12106 42H27.8789C28.9835 42 29.8789 41.1046 29.8789 40V9C29.8789 8.44772 29.4312 8 28.8789 8H1.12106ZM7.99999 15C7.99999 14.4477 8.44771 14 8.99999 14H11C11.5523 14 12 14.4477 12 15V35C12 35.5523 11.5523 36 11 36H8.99999C8.44771 36 7.99999 35.5523 7.99999 35V15ZM18 15C18 14.4477 18.4477 14 19 14H21C21.5523 14 22 14.4477 22 15V35C22 35.5523 21.5523 36 21 36H19C18.4477 36 18 35.5523 18 35V15Z" fill="#B1B1B1"/>
</svg>
