<svg width="38" height="38" viewBox="0 0 38 38" fill="none" xmlns="http://www.w3.org/2000/svg">
<path opacity="0.3" fill-rule="evenodd" clip-rule="evenodd" d="M37.0594 5.33178C31.8284 1.95791 25.598 0 18.9104 0C12.2228 0 5.99252 1.9579 0.761444 5.33176L18.9104 38L37.0594 5.33178Z" fill="black"/>
<path fill-rule="evenodd" clip-rule="evenodd" d="M14 16C15.6569 16 17 14.6569 17 13C17 11.3431 15.6569 10 14 10C12.3431 10 11 11.3431 11 13C11 14.6569 12.3431 16 14 16Z" fill="#DADADA"/>
<path fill-rule="evenodd" clip-rule="evenodd" d="M26 12C27.6569 12 29 10.6569 29 9C29 7.34315 27.6569 6 26 6C24.3431 6 23 7.34315 23 9C23 10.6569 24.3431 12 26 12Z" fill="#DADADA"/>
<path fill-rule="evenodd" clip-rule="evenodd" d="M20 28C21.6569 28 23 26.6569 23 25C23 23.3431 21.6569 22 20 22C18.3431 22 17 23.3431 17 25C17 26.6569 18.3431 28 20 28Z" fill="#DADADA"/>
</svg>
