<svg width="16" height="16" viewBox="0 0 16 16" fill="none" xmlns="http://www.w3.org/2000/svg">
<path fill-rule="evenodd" clip-rule="evenodd" d="M8.66667 3.37451V2.66659H9.33333C9.70152 2.66659 10 2.36811 10 1.99992C10 1.63173 9.70152 1.33325 9.33333 1.33325H6.66667C6.29848 1.33325 6 1.63173 6 1.99992C6 2.36811 6.29848 2.66659 6.66667 2.66659H7.33333V3.37451C7.55173 3.34728 7.77423 3.33325 8 3.33325C8.22577 3.33325 8.44827 3.34728 8.66667 3.37451Z" fill="#FFC700"/>
<path fill-rule="evenodd" clip-rule="evenodd" d="M12.1114 5.26919L12.6331 4.74745C12.8935 4.4871 12.8935 4.06499 12.6331 3.80464C12.3728 3.54429 11.9507 3.54429 11.6903 3.80464L11.1399 4.35506C11.5007 4.61824 11.8271 4.9256 12.1114 5.26919Z" fill="#FFC700"/>
<path fill-rule="evenodd" clip-rule="evenodd" d="M7.64107 5.33235C7.65549 5.14481 7.81187 5 7.99997 5C8.18806 5 8.34444 5.14481 8.35886 5.33235L8.62522 8.79498C8.64756 9.08538 8.41795 9.33333 8.12669 9.33333H7.87324C7.58198 9.33333 7.35237 9.08538 7.37471 8.79498L7.64107 5.33235Z" fill="#FFC700"/>
<path fill-rule="evenodd" clip-rule="evenodd" d="M8.00002 13.9999C5.0545 13.9999 2.66669 11.6121 2.66669 8.66659C2.66669 5.72107 5.0545 3.33325 8.00002 3.33325C10.9455 3.33325 13.3334 5.72107 13.3334 8.66659C13.3334 11.6121 10.9455 13.9999 8.00002 13.9999Z" stroke="#FFC700"/>
</svg>
